<?xml version="1.0" encoding="UTF-8"?>
<svg id="favicon" xmlns="http://www.w3.org/2000/svg" viewBox="0 0 32 32">
  <defs>
    <style>
      .cls-1 {
        fill: #435b66;
      }
    </style>
  </defs>
  <path class="cls-1" d="M10.03,24.15c-.44.84-1.04,1.56-1.79,2.16-.75.6-1.61,1.06-2.58,1.39s-2,.49-3.08.49c-.26,0-.53-.04-.81-.11s-.54-.18-.77-.32-.41-.31-.54-.52-.19-.46-.19-.76.07-.54.21-.74c.14-.2.39-.3.76-.3.31,0,.58.1.8.31.22.21.44.44.66.69.22.25.47.48.74.69.28.21.6.31.99.31.15,0,.43-.06.87-.18.43-.12.88-.34,1.35-.67.47-.33.88-.79,1.24-1.39.36-.59.54-1.38.54-2.35,0-.66-.13-1.24-.4-1.76-.27-.51-.62-.95-1.07-1.33-.45-.37-.97-.66-1.57-.86-.6-.2-1.22-.3-1.88-.3h-.36l-.08-.16c.48-.37.98-.76,1.53-1.18.54-.42,1.03-.88,1.48-1.37s.82-1.02,1.11-1.59c.29-.57.44-1.19.44-1.87,0-.75-.28-1.34-.84-1.78-.56-.44-1.24-.66-2.05-.66s-1.45.12-1.98.37-1,.68-1.4,1.31l-.25-.14c.2-.44.44-.87.73-1.28.28-.41.61-.78.98-1.11.37-.33.78-.6,1.25-.8.47-.2.99-.3,1.58-.3,1.25,0,2.27.33,3.06.97.8.65,1.2,1.5,1.2,2.54,0,.48-.09.93-.28,1.35-.18.42-.44.83-.78,1.24-.34.4-.74.81-1.21,1.21-.47.4-.99.82-1.55,1.26.6.13,1.19.33,1.74.6.56.28,1.05.62,1.48,1.03.43.41.77.88,1.02,1.41.25.53.37,1.09.37,1.68,0,1.03-.22,1.96-.66,2.8Z"/>
  <path class="cls-1" d="M23.55,9.46c-.26.63-.59,1.45-1,2.45-.41,1-.87,2.14-1.39,3.42-.51,1.28-1.06,2.63-1.64,4.04-.58,1.41-1.16,2.87-1.74,4.37s-1.15,2.97-1.7,4.4l-1.84-.08c.09-.18.31-.61.65-1.29.34-.68.75-1.51,1.24-2.49.48-.98,1.02-2.06,1.61-3.24.59-1.18,1.17-2.39,1.76-3.61.59-1.23,1.15-2.43,1.69-3.6.54-1.17,1-2.23,1.39-3.16h-7.45c-.59,0-1.07.08-1.44.25-.38.16-.68.37-.92.62-.24.25-.43.51-.56.78-.14.28-.25.52-.34.74l-.33-.11,1.79-4.62h10.72c-.06.13-.21.51-.47,1.14Z"/>
  <path class="cls-1" d="M31.45,8.49c-.18.42-.43.79-.74,1.1-.31.31-.67.56-1.09.74-.41.18-.86.28-1.33.28-.38,0-.78-.07-1.18-.21s-.78-.35-1.13-.63c-.35-.28-.63-.65-.85-1.09-.22-.44-.33-.95-.33-1.54,0-.42.08-.83.25-1.22.16-.39.4-.75.71-1.06s.68-.56,1.11-.76c.43-.19.91-.29,1.44-.29.38,0,.78.07,1.18.21.4.14.77.35,1.1.63.33.28.6.63.81,1.04.21.41.32.89.32,1.44,0,.48-.09.93-.28,1.35ZM30.12,6.15c-.06-.35-.17-.67-.33-.96-.16-.29-.36-.54-.6-.73-.25-.19-.56-.29-.95-.29-.31,0-.59.09-.82.28-.24.18-.44.42-.6.71s-.29.62-.38.98c-.09.36-.14.72-.14,1.09,0,.4.04.79.11,1.15.07.37.19.69.36.96.16.27.38.49.63.66.26.16.57.25.93.25.35,0,.64-.11.88-.32.24-.21.43-.47.59-.78.16-.31.26-.65.33-1.02.06-.37.1-.7.1-1.02,0-.29-.03-.61-.1-.96Z"/>
</svg>