<?xml version="1.0" encoding="UTF-8"?>
<svg id="logotipo" xmlns="http://www.w3.org/2000/svg" viewBox="0 0 255 51.27">
  <defs>
    <style>
      .cls-1 {
        fill: #f5f5f0;
      }
    </style>
  </defs>
  <path class="cls-1" d="M35.57,37.89H2.5v-.52c.86-.14,1.71-.36,2.55-.67.84-.31,1.5-.74,1.98-1.29.17-.21.32-.51.44-.9.12-.4.21-.85.28-1.37.07-.52.13-1.06.18-1.62.05-.57.08-1.12.08-1.67,0-.48,0-1.13.03-1.96.02-.82.03-1.73.05-2.7s.03-1.98.03-3.01V7.4c0-.62-.03-1.19-.08-1.73-.05-.53-.13-1-.23-1.42-.1-.41-.26-.74-.46-.98-.48-.58-1.12-1.03-1.93-1.34-.81-.31-1.66-.52-2.55-.62v-.51h16.43v.51c-.45.07-.98.17-1.6.31s-1.2.36-1.75.67c-.55.31-1.02.75-1.42,1.31-.4.57-.61,1.31-.64,2.24-.04,1.2-.06,2.3-.08,3.3-.02,1-.03,1.98-.05,2.94-.02.96-.03,1.96-.03,2.99v9.37c0,.89,0,1.81.03,2.76.02.95.03,2,.03,3.17.03,1.1.08,2.15.13,3.14.05,1,.23,1.73.54,2.22.14.17.41.34.82.51.41.17.91.32,1.49.44.58.12,1.22.22,1.91.31.69.09,1.37.13,2.06.13.27,0,.71,0,1.31-.03.6-.02,1.26-.05,1.98-.1.72-.05,1.46-.13,2.21-.23.75-.1,1.42-.24,2.01-.41,1.37-.38,2.51-.87,3.43-1.49.91-.62,1.69-1.33,2.34-2.14.65-.81,1.2-1.68,1.65-2.63.45-.94.88-1.93,1.29-2.96l.52.16-1.91,10.61Z"/>
  <path class="cls-1" d="M59.7,34.75c-.28.62-.64,1.18-1.08,1.67-.45.5-.97.88-1.57,1.13-.6.26-1.26.39-1.98.39-1.17,0-2.21-.34-3.12-1.03-.91-.69-1.36-1.89-1.36-3.61l-.1-.05c-.28.45-.64.95-1.11,1.49-.46.55-1.01,1.06-1.65,1.54-.64.48-1.34.87-2.11,1.16-.77.29-1.62.44-2.55.44-.55,0-1.11-.08-1.67-.23-.57-.16-1.08-.43-1.55-.82-.46-.39-.84-.9-1.13-1.52-.29-.62-.44-1.37-.44-2.27,0-.96.39-1.89,1.16-2.78s1.73-1.7,2.86-2.42,2.14-1.34,3.01-1.85c.88-.52,1.64-.95,2.29-1.31.65-.36,1.23-.67,1.73-.93s.92-.49,1.26-.7v-5.3c0-.07-.06-.23-.18-.49-.12-.26-.33-.52-.62-.8-.29-.27-.7-.52-1.21-.75-.52-.22-1.18-.33-2.01-.33-.55,0-1.09.09-1.62.28-.53.19-1,.43-1.42.72-.41.29-.74.58-.98.88-.24.29-.36.54-.36.75v2.32c0,.48-.25.91-.75,1.29-.5.38-1.04.57-1.62.57-.55,0-1.02-.2-1.42-.59-.4-.39-.59-.85-.59-1.36,0-.41.1-.79.31-1.13.21-.34.46-.65.77-.93s.64-.52,1-.72c.36-.21.68-.4.95-.57.89-.52,1.8-1.01,2.73-1.49.93-.48,1.81-.89,2.65-1.24.84-.34,1.61-.62,2.32-.82.7-.21,1.28-.31,1.73-.31.89,0,1.73.23,2.52.69.79.46,1.36,1.04,1.7,1.73.14.24.22.66.26,1.26.03.6.05,1.19.05,1.78,0,1.24,0,2.35-.03,3.35-.02,1-.03,1.96-.03,2.88s0,1.88-.03,2.86c-.02.98-.03,2.05-.03,3.22,0,1.55.27,2.57.8,3.07.53.5,1.14.75,1.83.75.79,0,1.37-.16,1.75-.49.38-.33.64-.75.77-1.26h.31c-.03.65-.19,1.29-.46,1.91ZM50.58,23.89c-.62.45-1.39.92-2.32,1.42-.93.5-1.83,1.04-2.7,1.62s-1.63,1.23-2.27,1.93c-.64.7-.95,1.5-.95,2.39s.31,1.7.93,2.42c.62.72,1.42,1.08,2.42,1.08.89,0,1.68-.1,2.37-.31.69-.21,1.32-.6,1.91-1.19.41-.38.62-.86.62-1.44v-7.93Z"/>
  <path class="cls-1" d="M74.72,16.67h-7.83v13.55c0,1.75.38,3.02,1.13,3.81.75.79,1.73,1.18,2.94,1.18,1,0,1.82-.16,2.47-.49.65-.33,1.22-.83,1.7-1.52l.31.16c-.21.51-.49,1.06-.85,1.62s-.84,1.08-1.44,1.54c-.6.46-1.31.82-2.11,1.08-.81.26-1.76.39-2.86.39-.72,0-1.41-.11-2.08-.33s-1.25-.55-1.76-.98c-.51-.43-.92-.91-1.25-1.44-.32-.53-.48-1.07-.48-1.62,0-3.23.02-6.29.05-9.19.03-2.9.05-5.49.05-7.75h-3.76v-.57l7.42-7.06h.41v4.48h9.53l-1.6,3.14Z"/>
  <path class="cls-1" d="M75.9,37.89v-.52c.41-.03.82-.08,1.24-.13.41-.05.78-.14,1.11-.26.33-.12.6-.28.82-.49.22-.21.33-.46.33-.77v-17.67c0-.27-.03-.51-.08-.72-.05-.21-.2-.39-.44-.57-.31-.21-.68-.41-1.11-.62-.43-.21-.88-.39-1.36-.57v-.31l6.95-2.27h.31v23.02c.07.34.21.59.44.75.22.16.49.27.8.34.31.07.64.11,1,.13.36.02.71.06,1.06.13v.52h-11.07ZM83.29,6.86c-.53.53-1.19.8-1.98.8s-1.41-.27-1.96-.82c-.55-.55-.82-1.2-.82-1.96s.27-1.44.8-1.96c.53-.52,1.19-.77,1.98-.77s1.45.26,1.98.77c.53.51.8,1.17.8,1.96s-.27,1.45-.8,1.98Z"/>
  <path class="cls-1" d="M101.49,16.67h-7.83v13.55c0,1.75.38,3.02,1.13,3.81.75.79,1.73,1.18,2.94,1.18,1,0,1.82-.16,2.47-.49.65-.33,1.22-.83,1.7-1.52l.31.16c-.21.51-.49,1.06-.85,1.62s-.84,1.08-1.44,1.54c-.6.46-1.31.82-2.11,1.08-.81.26-1.76.39-2.86.39-.72,0-1.41-.11-2.08-.33s-1.25-.55-1.76-.98c-.51-.43-.92-.91-1.25-1.44-.32-.53-.48-1.07-.48-1.62,0-3.23.02-6.29.05-9.19.03-2.9.05-5.49.05-7.75h-3.76v-.57l7.42-7.06h.41v4.48h9.53l-1.6,3.14Z"/>
  <path class="cls-1" d="M120.49,37.95h-.36v-5.2l-.05-.05c-.38.58-.84,1.2-1.39,1.85-.55.65-1.17,1.24-1.85,1.78-.69.53-1.45.95-2.29,1.26-.84.31-1.74.46-2.7.46-2.2,0-3.82-.65-4.87-1.96-1.05-1.3-1.57-3.21-1.57-5.72v-13.13c0-.24-.02-.49-.05-.75-.03-.26-.06-.5-.08-.72-.02-.22-.06-.39-.13-.49-.14-.31-.33-.53-.59-.67-.26-.14-.54-.24-.85-.31-.31-.07-.64-.11-.98-.13-.34-.02-.67-.04-.98-.08v-.57h7.93v14.99c0,2.27.34,3.94,1.03,5.02.69,1.08,1.98,1.62,3.88,1.62.72,0,1.35-.09,1.89-.28.53-.19,1.02-.43,1.45-.72.43-.29.83-.63,1.19-1,.36-.38.7-.77,1.01-1.18v-14.68c0-.34-.04-.78-.1-1.31-.07-.53-.21-.94-.41-1.21-.41-.17-.97-.31-1.67-.41-.7-.1-1.43-.19-2.19-.26v-.57h8.65v20.34c0,.28.03.48.08.62.05.14.2.29.44.46.31.17.76.4,1.36.67.6.28,1.11.5,1.52.67v.31l-7.31,1.34Z"/>
  <path class="cls-1" d="M146.51,38.05h-.31v-5.15h-.05c-1,1.72-2.17,2.99-3.53,3.81-1.36.82-3.05,1.24-5.07,1.24-1.27,0-2.5-.25-3.68-.75-1.19-.5-2.24-1.27-3.17-2.32s-1.67-2.33-2.21-3.86c-.55-1.53-.82-3.29-.82-5.28,0-1.78.32-3.45.95-5,.64-1.54,1.53-2.89,2.68-4.04s2.53-2.05,4.15-2.7c1.61-.65,3.4-.98,5.36-.98,1.03,0,2,.09,2.91.26.91.17,1.74.38,2.5.62-.03-.51-.06-1.22-.08-2.11-.02-.89-.03-1.8-.03-2.73v-4.38l-4.22-1.6v-.31l8.19-2.27h.41v33.43c.27.17.79.41,1.55.72.75.31,1.46.6,2.11.88v.36l-7.62,2.16ZM146.15,18.68c-.76-1.41-1.72-2.54-2.88-3.4-1.17-.86-2.25-1.29-3.25-1.29-1.34,0-2.48.31-3.42.93-.95.62-1.73,1.44-2.34,2.47-.62,1.03-1.07,2.21-1.36,3.55-.29,1.34-.44,2.71-.44,4.12s.17,2.77.52,4.1c.34,1.32.86,2.49,1.54,3.5.69,1.01,1.54,1.83,2.55,2.45,1.01.62,2.19.93,3.53.93,1.41,0,2.62-.48,3.63-1.44,1.01-.96,1.66-2.18,1.93-3.66v-12.26Z"/>
  <path class="cls-1" d="M174.18,32.62c-.48.95-1.13,1.81-1.96,2.6-.82.79-1.81,1.44-2.96,1.96-1.15.51-2.43.77-3.84.77-1.75,0-3.35-.33-4.79-.98-1.44-.65-2.67-1.57-3.68-2.75-1.01-1.19-1.79-2.58-2.34-4.17-.55-1.6-.82-3.29-.82-5.07,0-1.44.26-2.88.77-4.3.52-1.43,1.24-2.7,2.19-3.84.94-1.13,2.09-2.05,3.45-2.76,1.36-.7,2.86-1.06,4.51-1.06,1.34,0,2.6.17,3.79.51,1.18.34,2.21.87,3.09,1.57.87.7,1.59,1.59,2.14,2.65.55,1.06.87,2.32.98,3.76h-16.53c0,.27-.02.59-.05.95-.03.36-.05.73-.05,1.11,0,1.44.21,2.82.62,4.15.41,1.32,1.01,2.49,1.8,3.5.79,1.01,1.78,1.81,2.99,2.39,1.2.58,2.59.88,4.17.88,1.72,0,3.22-.44,4.51-1.31,1.29-.88,2.14-1.95,2.55-3.22l.41.1c-.14.76-.45,1.61-.93,2.55ZM168.28,15.26c-.87-.91-2.05-1.37-3.53-1.37-.96,0-1.83.28-2.6.85-.77.57-1.44,1.23-2.01,1.98s-1,1.52-1.31,2.29-.5,1.36-.57,1.78h2.11c.62,0,1.23,0,1.83-.03.6-.02,1.23-.03,1.88-.05.65-.02,1.37-.03,2.16-.03.51,0,1-.02,1.44-.05.45-.03.84-.12,1.18-.26.24-.27.42-.53.54-.77.12-.24.18-.6.18-1.08,0-1.27-.44-2.36-1.31-3.27Z"/>
  <path class="cls-1" d="M211.84,43.2c-.82,1.58-1.94,2.93-3.35,4.04-1.41,1.12-3.02,1.98-4.84,2.6s-3.74.93-5.77.93c-.48,0-.99-.07-1.52-.21s-1.01-.33-1.44-.59-.76-.58-1-.98-.36-.87-.36-1.42.13-1.01.39-1.39c.26-.38.73-.57,1.42-.57.58,0,1.08.19,1.49.58.41.39.82.82,1.24,1.3.41.47.88.91,1.39,1.3.52.39,1.13.58,1.85.58.27,0,.82-.11,1.62-.33.81-.22,1.65-.64,2.52-1.26.88-.62,1.65-1.48,2.32-2.6.67-1.11,1-2.58,1-4.4,0-1.24-.25-2.33-.75-3.29-.5-.96-1.17-1.79-2.01-2.49-.84-.7-1.82-1.24-2.94-1.62-1.12-.38-2.29-.56-3.53-.56h-.67l-.15-.31c.89-.69,1.85-1.42,2.86-2.21,1.01-.79,1.94-1.65,2.78-2.57s1.54-1.92,2.09-2.98c.55-1.06.82-2.23.82-3.5,0-1.41-.52-2.52-1.57-3.34-1.05-.82-2.33-1.23-3.84-1.23s-2.71.23-3.71.7-1.87,1.28-2.63,2.45l-.46-.26c.38-.82.83-1.62,1.37-2.4.53-.77,1.14-1.47,1.83-2.09.69-.62,1.47-1.12,2.34-1.49.88-.38,1.86-.57,2.96-.57,2.33,0,4.25.61,5.74,1.83,1.49,1.22,2.24,2.81,2.24,4.76,0,.89-.17,1.73-.52,2.52-.34.79-.83,1.56-1.47,2.32-.64.76-1.39,1.51-2.27,2.27-.88.76-1.85,1.55-2.91,2.37,1.13.24,2.22.62,3.27,1.13,1.05.52,1.97,1.16,2.78,1.93.8.77,1.44,1.66,1.91,2.65.46,1,.7,2.04.7,3.14,0,1.92-.41,3.67-1.24,5.25Z"/>
  <path class="cls-1" d="M237.18,15.67c-.48,1.18-1.11,2.71-1.88,4.58-.77,1.87-1.64,4.01-2.6,6.41-.96,2.4-1.98,4.93-3.07,7.57-1.08,2.64-2.17,5.37-3.27,8.19s-2.16,5.56-3.19,8.24l-3.45-.16c.17-.34.57-1.15,1.21-2.42.64-1.27,1.41-2.83,2.32-4.66.91-1.84,1.91-3.86,3.01-6.08,1.1-2.22,2.2-4.47,3.3-6.77,1.1-2.3,2.15-4.55,3.17-6.75,1.01-2.2,1.88-4.17,2.6-5.92h-13.96c-1.1,0-2,.15-2.7.46-.7.31-1.28.7-1.73,1.16-.45.46-.8.95-1.06,1.47-.26.52-.47.98-.64,1.39l-.62-.21,3.35-8.65h20.09c-.1.24-.4.95-.88,2.14Z"/>
  <path class="cls-1" d="M251.98,13.84c-.34.79-.81,1.48-1.39,2.06-.58.58-1.26,1.05-2.03,1.39-.77.34-1.61.52-2.5.52-.72,0-1.46-.13-2.22-.39s-1.46-.65-2.11-1.18c-.65-.53-1.18-1.21-1.6-2.03-.41-.82-.62-1.78-.62-2.88,0-.79.15-1.55.46-2.29.31-.74.75-1.4,1.34-1.98s1.28-1.06,2.09-1.42c.81-.36,1.71-.54,2.7-.54.72,0,1.46.13,2.22.39.75.26,1.44.65,2.06,1.18.62.53,1.12,1.19,1.52,1.96.39.77.59,1.67.59,2.7,0,.89-.17,1.73-.52,2.52ZM249.49,9.46c-.12-.65-.33-1.25-.62-1.8-.29-.55-.67-1-1.13-1.37-.46-.36-1.06-.54-1.78-.54-.58,0-1.1.17-1.55.52-.45.34-.82.79-1.13,1.34s-.55,1.16-.72,1.83c-.17.67-.26,1.35-.26,2.03,0,.76.07,1.48.21,2.16.14.69.36,1.29.67,1.8.31.51.7.93,1.19,1.24.48.31,1.06.46,1.75.46.65,0,1.2-.2,1.65-.59.45-.39.82-.88,1.11-1.47.29-.58.5-1.22.62-1.91.12-.69.18-1.32.18-1.91,0-.55-.06-1.15-.18-1.8Z"/>
</svg>